<?xml version="1.0" encoding="UTF-8"?>
<svg width="51.316mm" height="19.374mm" version="1.1" viewBox="0 0 51.316 19.374" xmlns="http://www.w3.org/2000/svg"
     xmlns:cc="http://creativecommons.org/ns#" xmlns:dc="http://purl.org/dc/elements/1.1/">
    <g transform="translate(-52.451 -132.67)">
        <g transform="rotate(1.711 -1236.5 -2243.2)">
            <g style="fill:#ed0009;stroke-width:.26458" aria-label="Fake">
                <path d="m126.21 106.48q-0.0413 0.093-0.11369 0.14469-0.062 0.062-0.18604 0.0103-0.12402-0.0413-0.1757-0.12403-0.0413-0.0827-0.0723-0.1757-0.0207-0.10335-0.0517-0.19637-0.0207-0.093-0.093-0.15503-0.15503-0.11369-0.19637-0.31006-0.062-0.37207-0.0723-0.88883 0-0.51677-0.0103-0.71314t-0.0413-0.28938q-0.0207-0.093-0.062-0.11369-0.031-0.0207-0.093-0.0517-0.11369-0.0517-0.16536-0.36173-0.0517-0.3204-0.031-0.74414 0.0413-0.79582-0.093-1.3643-0.12402-0.53744-0.093-1.0129 0.031-0.48576 0.093-0.68213 0.12403-0.45475 0.44442-0.39274 0.33073 0.06201 0.51676 0.05168 0.19637-0.01033 0.3204-0.05168 0.12402-0.04134 0.22737-0.08268 0.10336-0.04134 0.26872-0.03101 0.1757 0 0.31006 0.05168 0.14469 0.04134 0.28939 0.08268 0.3824 0.12402 0.59944 0.11369 0.21705-0.01033 0.34107-0.02067 0.12402-0.02067 0.21704-0.02067 0.19637 0 0.32039 0.10335 0.13436 0.10335 0.15503 0.22738 0.0207 0.12402 0.0103 0.25838-0.0207 0.25838-0.093 0.43408-0.0724 0.16537-0.0827 0.27905 0 0.11369 0.0103 0.22738 0.0103 0.10335 0.0207 0.20671 0.0103 0.10335-0.0207 0.22737-0.0207 0.11369-0.12402 0.23771-0.10335 0.11369-0.23771 0.20671-0.29972 0.18603-0.48576 0.13436-0.18603-0.0517-0.27905-0.0827-0.0827-0.0413-0.16537-0.062-0.1757-0.0517-0.34106-0.0103-0.16537 0.0413-0.22738 0.15503-0.062 0.11369-0.0517 0.23771 0.0207 0.12402 0.12402 0.22738 0.10335 0.093 0.27905 0.10335 0.18604 0.0103 0.29973 0 0.11368-0.0103 0.18603-0.0103 0.15503 0 0.27905 0.13436 0.18604 0.21704-0.031 0.65113-0.0517 0.11368-0.093 0.29972-0.031 0.18603-0.0827 0.37207-0.0517 0.1757-0.13436 0.29972-0.0724 0.11369-0.1757 0.093-0.10335-0.0207-0.14469-0.062-0.031-0.0413-0.0724-0.0724-0.0827-0.0827-0.18604-0.0517-0.16536 0.0414-0.19637 0.29973-0.0207 0.24805-0.0103 0.49609 0.0103 0.24805 0.0207 0.42375 0.0207 0.1757 0 0.3514-0.031 0.40307-0.31006 0.60978-0.093 0.062-0.14469 0.1757-0.0414 0.10335-0.093 0.20671z" />
                <path d="m129.63 106.66q-0.10336 0.031-0.23771-0.0207-0.12403-0.0413-0.1757-0.16536-0.0517-0.13436-0.0724-0.29973-0.0103-0.1757 0-0.37207t0.0103-0.3824q0-0.41341-0.13435-0.5271-0.27906-0.20671-0.22738-1.0542 0.0517-0.48576 0.11369-0.77515 0.10335-0.47542 0.093-0.80615 0-0.33073 0.0207-0.51677 0.031-0.18603 0.062-0.31005 0.0413-0.12403 0.093-0.25839 0.0517-0.13435 0.093-0.44441 0.10336-0.77515 0.18604-0.96118 0.11369-0.25838 0.26871-0.5271 0.16537-0.27905 0.26872-0.37207 0.23771-0.1757 0.68213-0.03101 0.33073 0.11369 0.60978 0.07235 0.28939-0.04134 0.43409-0.031 0.15502 0 0.34106 0.11369 0.18603 0.10335 0.28939 0.25838 0.10335 0.14469 0.14469 0.32039 0.0724 0.29972 0.0103 0.76481-0.062 0.45475-0.0517 0.74414 0.0207 0.27905 0.12402 0.53743 0.11369 0.24805 0.1447 0.40308 0.0413 0.14469 0.062 0.29972 0.031 0.14469 0.0413 0.32039 0.0207 0.16537 0.062 0.38241 0.0517 0.21704 0.0517 0.3514 0.0103 0.12402 0 0.20671-0.0103 0.0827-0.031 0.15503-0.0103 0.062 0.0103 0.2067 0.031 0.13436 0 0.29972-0.0207 0.16537-0.0517 0.3204-0.11369 0.47542-0.093 0.67179 0.0413 0.3514 0 0.50643-0.0413 0.14469-0.0827 0.23771-0.031 0.093-0.0827 0.25838-0.0413 0.16537-0.18604 0.29973-0.14469 0.13436-0.27905 0.0827-0.12402-0.0517-0.16536-0.14469-0.031-0.10336-0.062-0.20671-0.0207-0.10335-0.062-0.18603-0.031-0.0827-0.12402-0.093-0.16536-0.0207-0.1757-0.18604-0.0103-0.1757 0-0.29972 0.0207-0.13436-0.0103-0.26872t-0.10336-0.25838q-0.18603-0.32039-0.43408-0.3514-0.37207-0.0517-0.51676 0.36173-0.031 0.10336-0.0517 0.27906-0.0103 0.16536-0.0827 0.29972-0.062 0.13436-0.1447 0.22738-0.0723 0.093-0.14469 0.1757-0.062 0.0723-0.0827 0.18603-0.0827 0.44442-0.3514 0.50643zm0.91984-4.3305q-0.20671 0.5581-0.0517 0.88883 0.10335 0.18604 0.26872 0.19637 0.29972 0.031 0.3514-0.0413 0.062-0.0827 0.13436-0.16536 0.0827-0.093 0.062-0.26872-0.0207-0.18604-0.031-0.3204-0.0103-0.14469-0.10335-0.32039-0.0827-0.1757-0.11369-0.37207-0.031-0.20671-0.0413-0.39274-0.0413-0.41341-0.18603-0.41341-0.10336 0-0.13436 0.11369-0.0207 0.10335-0.031 0.27905-0.0103 0.53743-0.12402 0.81649z" />
                <path d="m137.01 102.13q-0.2067 0.42375-0.28939 0.62012-0.0723 0.19637-0.0723 0.29972 0 0.093 0.062 0.26872 0.0724 0.16536 0.1757 0.3824 0.10335 0.20671 0.22737 0.46509 0.13436 0.25838 0.22738 0.48576 0.093 0.21704 0.12402 0.34106 0.0413 0.11369 0.062 0.22738 0.0207 0.19637-0.0207 0.44442-0.031 0.24805-0.0207 0.40307 0.0207 0.1447 0.0103 0.26872 0 0.12403-0.0413 0.20671-0.0413 0.0723-0.24805 0.0827-0.19637 0.0207-0.37207-0.13436-0.16536-0.15503-0.28939-0.36173-0.11368-0.21704-0.19637-0.42375-0.0723-0.20671-0.19637-0.34106-0.12402-0.13436-0.21704-0.39275-0.0827-0.25838-0.14469-0.49609-0.062-0.23771-0.13436-0.41341-0.0724-0.1757-0.20671-0.19637-0.12402-0.0207-0.16536 0.062-0.031 0.0827-0.031 0.22738 0.0103 0.13436 0.031 0.31006 0.0207 0.16536 0.0207 0.37207 0.0103 0.19637-0.0207 0.37207-0.0207 0.1757-0.16537 0.34106-0.13435 0.15503-0.18603 0.32039-0.0413 0.16537-0.0724 0.3204-0.031 0.15503-0.0827 0.26872-0.0517 0.11368-0.1757 0.11368-0.24805 0.0103-0.45475-0.27905-0.20671-0.28939-0.23771-0.75448-0.031-0.26871-0.15503-0.35139-0.11369-0.0724-0.0724-0.56845 0.0103-0.13435 0.0413-0.23771 0.062-0.32039-0.0103-0.9095-0.062-0.59945-0.0827-0.7028-0.0207-0.11369-0.0517-0.25838-0.0207-0.15503-0.0413-0.3204-0.0103-0.1757-0.0103-0.3514 0-0.18603 0.0413-0.3824 0.0517-0.20671 0.0517-0.34107 0.0103-0.13436 0-0.23771-0.0517-0.33073-0.0413-0.5271 0.0207-0.2067-0.0103-0.43408-0.031-0.22738-0.0413-0.44442t0.031-0.39274q0.0517-0.18604 0.18603-0.26872 0.1447-0.08268 0.24805-0.06201 0.10335 0.01033 0.21704 0.04134 0.34106 0.09302 0.47542 0.07235 0.78548-0.19637 0.63046 1.0025-0.031 0.19636-0.062 0.35139-0.0723 0.37207-0.0413 0.55811 0.0207 0.12402 0.0207 0.26872 0.0103 0.14469 0.0207 0.26871 0.0207 0.28939 0.13436 0.28939 0.1757 0 0.44442-0.59945 0.062-0.13435 0.0827-0.21704 0.031-0.0827 0.0724-0.19637 0.0517-0.11369 0.11369-0.22737 0.16536-0.27906 0.3514-0.3514-0.13436-0.28939-0.0517-0.49609 0.093-0.21704 0.14469-0.32039 0.0517-0.10335 0.11369-0.16536 0.11369-0.11369 0.33073-0.05168 0.22738 0.06201 0.39274 0.01033 0.16537-0.05168 0.3204-0.10335 0.16536-0.06201 0.32039-0.08268 0.15503-0.03101 0.25838 0.06201 0.11369 0.09302 0.13436 0.21704 0.031 0.11369 0 0.24805-0.062 0.27905-0.31006 0.54777-0.14469 0.56844-0.47542 0.89918-0.0413 0.48576-0.31006 0.81649-0.10335 0.11368-0.31006 0.53743z" />
                <path d="m138.54 104.6-0.0103-0.5271q0-0.14469 0.0103-0.26871 0.0103-0.13436-0.0207-0.33073-0.0517-0.34107-0.0517-0.4961 0.0103-0.16536 0-0.25838 0-0.10335-0.0207-0.18603-0.031-0.12403-0.15503-0.39274-0.11369-0.26872-0.11369-0.57878t0.13436-0.49609q0.12402-0.18604 0.093-0.38241-0.031-0.19637-0.0517-0.41341-0.0103-0.22738 0-0.45475 0.0103-0.23771 0.10335-0.45475 0.22738-0.5271 0.90951-0.50643 0.42374 0.01033 0.7338 0.08268t0.45475 0.06201q0.1447-0.01034 0.44442-0.10335 0.43408-0.16536 0.69247 0.02067 0.0723 0.05168 0.13435 0.08268 0.0724 0.02067 0.12403 0.07235 0.1757 0.19637 0.10335 0.85783-0.0207 0.19637-0.0413 0.39275-0.0517 0.46508 0 0.69246t0.0517 0.40308q0.0103 0.16536-0.0103 0.29972-0.062 0.29972-0.23771 0.29972-0.15503-0.0103-0.22738-0.093-0.062-0.093-0.10335-0.19637-0.0413-0.11368-0.093-0.19637-0.0413-0.093-0.19637-0.093-0.45475 0-0.60978-0.093-0.14469-0.10335-0.25838-0.11369-0.11369-0.0207-0.21704 0.0207-0.21704 0.093-0.25839 0.34107-0.031 0.24804-0.0413 0.43408-0.0103 0.18603 0 0.34106 0.0207 0.36174 0.13436 0.41341 0.12403 0.0413 0.20671 0.0103 0.0827-0.0413 0.16536-0.093 0.24805-0.16536 0.50643-0.15503 0.26872 0 0.39274 0.20671 0.13436 0.2067 0.11369 0.40307-0.0207 0.18604-0.0413 0.37207-0.0103 0.18604-0.0413 0.3514-0.1447 0.64079-0.59945 0.24805-0.58911-0.0413-0.7338 0.14469-0.031 0.0517-0.062 0.21705-0.031 0.16536-0.0103 0.3514 0.0517 0.48575 0.46509 0.51676 0.26871 0.0207 0.48576-0.0724 0.22737-0.093 0.29972-0.2067 0.062-0.12403 0.15503-0.13436 0.093-0.0207 0.16536-0.031 0.0724-0.0207 0.1447-0.0207t0.14469 0.0207q0.18604 0.062 0.21704 0.28939 0.0413 0.22738-0.0413 0.41341-0.0827 0.18604-0.11369 0.34107-0.0207 0.14469-0.0413 0.21704-0.0207 0.0723-0.12402 0.18603-0.093 0.10336-0.15503 0.1757-0.0517 0.0724-0.1757-0.031-0.22738-0.1757-0.54777 0.2067-0.0827 0.11369-0.1757 0.16537-0.093 0.0517-0.28939 0.0413-0.19637-0.0103-0.31006-0.10335-0.11369-0.093-0.2067-0.18604-0.15503-0.19637-0.53744-0.14469-0.22737 0.031-0.37207-0.19637-0.031-0.031-0.0517-0.11369-0.0103-0.0827-0.031-0.18604-0.0724-0.26872-0.13436-0.34106-0.0517-0.0827-0.062-0.20671 0-0.12402-0.0207-0.25838-0.0207-0.14469-0.031-0.20671-0.0103-0.0723 0.0103-0.16536 0.031-0.093 0.031-0.20671z" />
            </g>
            <path d="m143.73 102.5a10.149 9.359 0 0 1-10.149 9.359 10.149 9.359 0 0 1-10.149-9.359 10.149 9.359 0 0 1 10.149-9.359 10.149 9.359 0 0 1 10.149 9.359z"
                  style="fill-opacity:0;stroke-linecap:round;stroke-linejoin:round;stroke-width:.65444;stroke:#e41805"/>
        </g>
        <g style="fill:#101cef;stroke-width:.26458" aria-label="NEWS">
            <path d="m80.212 146.36q-0.35983-0.60325-0.80433-1.2912-0.4445-0.6985-0.92075-1.397-0.47625-0.70908-0.97367-1.3652-0.48683-0.66675-0.93133-1.1959v5.2493h-1.3123v-7.3342h1.0901q0.42333 0.4445 0.91017 1.0583 0.48683 0.60325 0.97367 1.2594 0.49742 0.65617 0.9525 1.3229 0.46567 0.65616 0.8255 1.2277v-4.8683h1.3229v7.3342z" />
            <path d="m83.104 146.36v-7.3342h4.7096v1.1324h-3.3761v1.8098h3.0057v1.1112h-3.0057v2.1484h3.6301v1.1324z" />
            <path d="m94.004 139.85q0.16933 0.5715 0.35983 1.1959 0.1905 0.61383 0.39158 1.2382 0.21167 0.61383 0.41275 1.2171 0.21167 0.59267 0.40217 1.1218 0.15875-0.5715 0.30692-1.2382 0.14817-0.67733 0.29633-1.397 0.14817-0.73025 0.28575-1.4817 0.14817-0.75142 0.27517-1.4817h1.3758q-0.37042 1.9897-0.8255 3.8312-0.45508 1.8309-1.016 3.5031h-1.27q-0.8255-2.1378-1.5981-4.6672-0.39158 1.2806-0.79375 2.4342-0.40217 1.1536-0.80433 2.2331h-1.27q-0.5715-1.6722-1.0266-3.5031-0.4445-1.8415-0.81492-3.8312h1.4288q0.127 0.71967 0.26458 1.4711 0.14817 0.75142 0.29633 1.4817 0.15875 0.71967 0.3175 1.397t0.3175 1.2488q0.20108-0.53975 0.40217-1.1324 0.21167-0.60325 0.41275-1.2171 0.20108-0.62441 0.381-1.2382 0.1905-0.61383 0.34925-1.1853z" />
            <path d="m101 145.37q0.71967 0 1.0478-0.24342 0.32809-0.24342 0.32809-0.68792 0-0.26458-0.11642-0.45508-0.10583-0.1905-0.3175-0.33867-0.20108-0.15875-0.49742-0.28575-0.29633-0.13758-0.67733-0.26458-0.381-0.13758-0.74083-0.29633-0.34925-0.16934-0.62442-0.41275-0.26458-0.24342-0.43392-0.58209-0.15875-0.33866-0.15875-0.81491 0-0.99484 0.68792-1.5558 0.68792-0.5715 1.8732-0.5715 0.68792 0 1.2171 0.15875 0.53975 0.14816 0.84667 0.32808l-0.41275 1.0795q-0.35983-0.20108-0.79375-0.30692-0.42333-0.10583-0.87842-0.10583-0.53975 0-0.84666 0.22225-0.29634 0.22225-0.29634 0.62442 0 0.24341 0.0953 0.42333 0.10584 0.16933 0.28575 0.30692 0.1905 0.13758 0.43392 0.254 0.254 0.11641 0.55033 0.22225 0.51859 0.1905 0.92075 0.39158 0.41275 0.1905 0.68792 0.46567 0.28575 0.26458 0.43392 0.635 0.14816 0.35983 0.14816 0.87841 0 0.99484-0.70908 1.5452-0.6985 0.53975-2.0532 0.53975-0.45508 0-0.83608-0.0635-0.37042-0.0529-0.66675-0.13758-0.28575-0.0847-0.49742-0.16934-0.21167-0.0952-0.33867-0.16933l0.39158-1.0901q0.28575 0.15875 0.77258 0.3175 0.48684 0.15875 1.1747 0.15875z" />
        </g>
    </g>
</svg>
