<svg xmlns="http://www.w3.org/2000/svg" width="395" height="358.281" viewBox="0 0 395 358.281">
  <g id="Group_31" data-name="Group 31" transform="translate(-117.656 -1157.578)">
    <path id="Path_1" data-name="Path 1" d="M343.836,1516.312c-95.661,0-173.487-77.826-173.487-173.487s77.827-173.487,173.487-173.487,173.487,77.826,173.487,173.487S439.5,1516.312,343.836,1516.312Zm0-296.169a122.682,122.682,0,1,0,122.682,122.682A122.82,122.82,0,0,0,343.836,1220.143Z" transform="translate(-27.361 -6.106)" fill="#bdeeff"/>
    <circle id="Ellipse_1" data-name="Ellipse 1" cx="126.672" cy="126.672" r="126.672" transform="translate(137.335 1336.719) rotate(-45)" fill="#bdeeff"/>
    <g id="Group_1" data-name="Group 1" transform="translate(246.137 1344.776)">
      <path id="Path_2" data-name="Path 2" d="M519.415,1546.961c4.121,4.163,8,8.568,11.746,13.1s7.289,9.247,10.627,14.148a120.082,120.082,0,0,1,8.978,15.546,63.611,63.611,0,0,1,3.334,8.635,37.641,37.641,0,0,1,1.672,9.626,24.3,24.3,0,0,1-.4,5.281,19.067,19.067,0,0,1-1.853,5.34,18.589,18.589,0,0,1-3.485,4.658,21.488,21.488,0,0,1-4.528,3.361,28.029,28.029,0,0,1-4.9,2.155,30.643,30.643,0,0,1-5.141,1.212,38.584,38.584,0,0,1-10.178.055,70.56,70.56,0,0,1-9.37-1.862c-2.991-.786-5.876-1.663-8.688-2.558s-5.565-1.783-8.282-2.6-5.4-1.577-8.052-2.233a78.572,78.572,0,0,0-7.9-1.539,57.657,57.657,0,0,0-7.74-.63,52.665,52.665,0,0,0-7.568.475,49.736,49.736,0,0,0-7.37,1.641,58.145,58.145,0,0,0-14,6.547,86.311,86.311,0,0,0-12.725,9.957,130.955,130.955,0,0,0-11.364,12.152q-2.706,3.216-5.107,6.709-1.2,1.745-2.322,3.546l-1.1,1.761-1.087,1.783c-2.888,4.823-5.7,9.823-8.9,14.55-1.587,2.375-3.244,4.708-4.95,7.009l-1.292,1.717a5.556,5.556,0,0,1-1.853,1.409,9.886,9.886,0,0,1-2.909.861,18.77,18.77,0,0,1-4.48.1,15.926,15.926,0,0,1-2.455-3.776,9.438,9.438,0,0,1-.837-2.995,5.83,5.83,0,0,1,.258-2.425c.265-.714.563-1.4.851-2.1q1.76-4.163,3.887-8.1a114.125,114.125,0,0,1,9.918-14.97l1.407-1.814c.482-.6.961-1.231,1.447-1.8l2.889-3.487,5.76-7.015a161.81,161.81,0,0,1,12.482-13.457,103.113,103.113,0,0,1,14.668-11.77,76.911,76.911,0,0,1,8.4-4.776,65.561,65.561,0,0,1,9.149-3.6,57.843,57.843,0,0,1,9.713-2.093,56.936,56.936,0,0,1,9.9-.425,69.035,69.035,0,0,1,9.668,1.1,92.544,92.544,0,0,1,9.18,2.279c5.954,1.77,11.522,4.059,16.9,6.143s10.577,4.089,15.592,5.068a28.219,28.219,0,0,0,7.268.591,20.227,20.227,0,0,0,3.431-.5,18.457,18.457,0,0,0,3.218-1.088,10.379,10.379,0,0,0,4.6-3.757,11.016,11.016,0,0,0,1.285-2.8,15.654,15.654,0,0,0,.6-3.4,29.755,29.755,0,0,0-.6-7.684,60.749,60.749,0,0,0-2.2-7.957,114.526,114.526,0,0,0-6.87-15.64c-2.63-5.13-5.557-10.143-8.625-15.085q-2.3-3.711-4.73-7.349Q521.97,1550.529,519.415,1546.961Z" transform="translate(-384.904 -1546.961)" fill="#0061e2"/>
      <path id="Path_3" data-name="Path 3" d="M534.705,1558.488a176.518,176.518,0,0,1,23.448,25.838,106.456,106.456,0,0,1,9.336,15.161,58.1,58.1,0,0,1,3.449,8.515,38.881,38.881,0,0,1,1.794,9.46,25.339,25.339,0,0,1-1.472,10.286,22.924,22.924,0,0,1-6.135,8.9,31.881,31.881,0,0,1-8.674,5.494c-.763.339-1.512.629-2.263.917-.377.143-.75.3-1.132.43l-1.155.385c-.387.125-.769.261-1.161.376l-1.181.329c-.784.232-1.586.41-2.389.586a44.881,44.881,0,0,1-9.835,1.024,54.455,54.455,0,0,1-9.712-.979,81.8,81.8,0,0,1-9.087-2.346c-2.914-.914-5.725-1.9-8.436-2.879s-5.356-1.931-7.935-2.77-5.1-1.555-7.572-2.095a43.4,43.4,0,0,0-7.294-.976,36.417,36.417,0,0,0-7.11.415,42.747,42.747,0,0,0-13.884,5.061,63.624,63.624,0,0,0-6.634,4.241c-1.092.756-2.143,1.608-3.212,2.422-.529.418-1.047.859-1.572,1.286s-1.051.855-1.56,1.313c-1.026.9-2.064,1.786-3.056,2.743l-1.5,1.411-1.474,1.457c-.993.959-1.95,1.968-2.914,2.968-.977.985-1.9,2.036-2.836,3.071-1.859,2.084-3.611,4.274-5.333,6.495-.863,1.105-1.694,2.245-2.529,3.378l-1.261,1.694-1.236,1.718c-1.665,2.273-3.335,4.559-5.086,6.777-1.7,2.257-3.457,4.559-5.228,6.821s-3.577,4.515-5.388,6.752l-2.735,3.336a2.869,2.869,0,0,1-2.18,1.1,6.841,6.841,0,0,1-.88.045l-1.061-.076a17.038,17.038,0,0,1-2.839-.619,14.7,14.7,0,0,1-1.628-2.413l-.451-.97a6.642,6.642,0,0,1-.27-.849,2.937,2.937,0,0,1,.275-2.468l2.211-3.768c1.5-2.492,3.011-4.965,4.575-7.406s3.148-4.853,4.822-7.277,3.394-4.811,5.262-7.1l1.391-1.721,1.426-1.7c.955-1.129,1.906-2.26,2.894-3.369.973-1.119,1.923-2.251,2.928-3.35s1.95-2.238,2.957-3.339c1.982-2.223,3.958-4.466,6.051-6.626l1.563-1.625,1.612-1.593c1.064-1.07,2.179-2.106,3.286-3.147.546-.527,1.126-1.028,1.7-1.537s1.139-1.019,1.725-1.517c1.19-.981,2.351-1.985,3.6-2.923a77.015,77.015,0,0,1,7.751-5.372,62.5,62.5,0,0,1,8.658-4.415,48.905,48.905,0,0,1,9.621-2.839,45.026,45.026,0,0,1,10.131-.711,50.85,50.85,0,0,1,9.837,1.349,78.422,78.422,0,0,1,9.04,2.748c2.872,1.056,5.614,2.19,8.274,3.31a112.974,112.974,0,0,0,15.313,5.646,43.043,43.043,0,0,0,7.426,1.3,35.045,35.045,0,0,0,7.4-.222c.616-.084,1.234-.165,1.847-.3l.924-.177c.308-.063.612-.148.919-.22l.921-.224c.307-.079.61-.18.916-.268.613-.181,1.228-.361,1.8-.567a22.771,22.771,0,0,0,6.208-3.206,13.545,13.545,0,0,0,4.076-4.882,16.47,16.47,0,0,0,1.576-6.631,30.879,30.879,0,0,0-.725-7.624,59.4,59.4,0,0,0-2.29-7.8,102.9,102.9,0,0,0-7.2-15.215c-2.767-4.971-5.872-9.79-9.12-14.532q-2.435-3.559-5.022-7.027Q537.425,1561.871,534.705,1558.488Z" transform="translate(-394.455 -1552.946)" fill="#fcd910"/>
    </g>
    <path id="Path_4" data-name="Path 4" d="M349.137,1516.7c-92.955,0-168.579-75.623-168.579-168.579s75.625-168.579,168.579-168.579,168.579,75.625,168.579,168.579S442.092,1516.7,349.137,1516.7Zm0-287.79a119.211,119.211,0,1,0,119.211,119.211A119.346,119.346,0,0,0,349.137,1228.914Z" transform="translate(-32.661 -11.407)" fill="#152b3b"/>
    <g id="Group_26" data-name="Group 26" transform="translate(117.656 1281.328)">
      <rect id="Rectangle_2" data-name="Rectangle 2" width="5.769" height="35.349" transform="translate(151.79 109.981) rotate(-29.027)" fill="#152b3b"/>
      <rect id="Rectangle_3" data-name="Rectangle 3" width="5.769" height="33.405" transform="matrix(0.868, -0.496, 0.496, 0.868, 175.821, 96.465)" fill="#152b3b"/>
      <g id="Group_3" data-name="Group 3" transform="translate(5.999 5.184)">
        <g id="Group_2" data-name="Group 2">
          <path id="Path_5" data-name="Path 5" d="M513.136,1425.769l-.709.225a143.864,143.864,0,0,1-43.564,6.775H357.047c-13.772,0-26.766,6.824-35.411,18.489-8.645-11.665-21.639-18.489-35.412-18.489H174.408a143.864,143.864,0,0,1-43.564-6.775l-.709-.225s6.7,13.763,20.017,22l-4.58-1.009-.709-.225s10.9,22.407,32.562,27.151c2.592,3.807,16.032,21.648,40.219,21.648h64.477l.406-.065-29.044,17.809-79.647,23.4a73.865,73.865,0,0,0,16.257,10.18c26.943,12.538,58.767,7.977,81.629-11.009l7.842-6.512h57.755l.007.016h15.119a37.131,37.131,0,0,0,19.959-5.77h.269c7.635-4.954,14.2-12.232,17.553-20.615l.081-.212a33.114,33.114,0,0,0,1.947-7.227h33.375c24.188,0,37.627-17.842,40.219-21.648,21.662-4.744,32.562-27.151,32.562-27.151l-.709.225-4.58,1.009C506.438,1439.532,513.136,1425.769,513.136,1425.769Z" transform="translate(-130.135 -1425.769)" fill="#fff"/>
        </g>
      </g>
      <g id="Group_10" data-name="Group 10" transform="translate(194.035)">
        <g id="Group_5" data-name="Group 5">
          <g id="Group_4" data-name="Group 4">
            <path id="Path_6" data-name="Path 6" d="M675.533,1451.342H592.7v-6.262h82.838c16.735,0,28.06-11.82,33.7-19.607a146.6,146.6,0,0,1-37.284,4.827H560.137c-13.134,0-25.745,6.862-33.734,18.357l-5.143-3.574c9.159-13.177,23.693-21.045,38.877-21.045H671.953a140.682,140.682,0,0,0,42.615-6.628l7.657-2.425-3.183,6.553C718.452,1422.755,704.237,1451.342,675.533,1451.342Z" transform="translate(-521.26 -1414.985)" fill="#152b3b"/>
          </g>
        </g>
        <g id="Group_7" data-name="Group 7" transform="translate(53.222 20.765)">
          <g id="Group_6" data-name="Group 6">
            <path id="Path_7" data-name="Path 7" d="M718.288,1494.54H631.965v-6.262h86.323c24.825,0,37.747-26.017,37.876-26.279l1.894.92-.734-2.312,7.658-2.431-3.186,6.558C761.206,1465.952,746.991,1494.54,718.288,1494.54Z" transform="translate(-631.965 -1458.177)" fill="#152b3b"/>
          </g>
        </g>
        <g id="Group_9" data-name="Group 9" transform="translate(34.087 50.758)">
          <g id="Group_8" data-name="Group 8">
            <path id="Path_8" data-name="Path 8" d="M665.532,1547.692H592.163v-6.262h73.369c25.026,0,37.893-20.658,38.02-20.866l5.348,3.256C708.306,1524.8,694.038,1547.692,665.532,1547.692Z" transform="translate(-592.163 -1520.564)" fill="#152b3b"/>
          </g>
        </g>
      </g>
      <g id="Group_12" data-name="Group 12" transform="translate(43.198 35.901)">
        <g id="Group_11" data-name="Group 11">
          <path id="Path_9" data-name="Path 9" d="M262.149,1590.008a78.142,78.142,0,0,1-33.2-7.325A77.2,77.2,0,0,1,212,1572.066l-4.495-3.756,84.867-24.939,87.6-53.711,53.79,46.381-40.142,29.41H320.87l-6.971,5.79A81.2,81.2,0,0,1,262.149,1590.008Zm-41.3-19.091A74.606,74.606,0,0,0,231.589,1577a71.906,71.906,0,0,0,30.56,6.741,74.922,74.922,0,0,0,47.749-17.32l8.71-7.234h73.044l33.774-23.583-46.006-38.262-84.477,51.8Z" transform="translate(-207.51 -1489.661)" fill="#152b3b"/>
        </g>
      </g>
      <g id="Group_13" data-name="Group 13" transform="translate(188.821 12.623)">
        <path id="Path_10" data-name="Path 10" d="M510.415,1484.52l59.057-37.24c16.592-10.766,39.077-6.851,50.253,9.468a36.066,36.066,0,0,1,6.35,20.935s-10.754-11.708-23.5-3.44h0a26.187,26.187,0,0,0-11.446,16.683,52.859,52.859,0,0,0-1.078,8.895c-.4,12.9-9.1,24.583-19.924,31.607h-.269a37.133,37.133,0,0,1-19.959,5.77H534.783" transform="translate(-510.415 -1441.241)" fill="#fff"/>
      </g>
      <g id="Group_14" data-name="Group 14" transform="translate(184.829 9.485)">
        <path id="Path_11" data-name="Path 11" d="M617.993,1451.591a39.166,39.166,0,0,0-32.438-16.877,40.46,40.46,0,0,0-22.058,6.528l-61.384,38.7,2.646,5.73,5.338-3.366,1.221-.767,55.546-35.021a34.319,34.319,0,0,1,18.692-5.542,32.794,32.794,0,0,1,32.5,26.63,21.348,21.348,0,0,0-10.38-2.833,20.178,20.178,0,0,0-11.115,3.46,29.457,29.457,0,0,0-12.806,18.676,55.021,55.021,0,0,0-1.143,9.425c-.313,10.505-7.092,21.37-17.737,28.571h-.25l-.783.5a33.777,33.777,0,0,1-18.27,5.276H525.579l2.9,6.262h17.159a40.081,40.081,0,0,0,20.822-5.777h.282l.783-.5c12.775-8.3,20.963-21.37,21.354-34.144a49.036,49.036,0,0,1,1.017-8.36,23.161,23.161,0,0,1,10.082-14.685,14.051,14.051,0,0,1,7.7-2.442c6.685,0,11.742,5.339,11.789,5.37l5.323,5.808.11-7.874A39.143,39.143,0,0,0,617.993,1451.591Z" transform="translate(-502.112 -1434.715)" fill="#152b3b"/>
      </g>
      <g id="Group_21" data-name="Group 21">
        <g id="Group_16" data-name="Group 16">
          <g id="Group_15" data-name="Group 15">
            <path id="Path_12" data-name="Path 12" d="M322.408,1461.5l-8.93-12.847c-7.988-11.495-20.6-18.357-33.734-18.357H167.928a146.668,146.668,0,0,1-37.295-4.83,59.507,59.507,0,0,0,5.594,6.673c8.367,8.584,17.829,12.936,28.121,12.936h82.838v6.262H164.348c-28.7,0-42.919-28.588-43.509-29.8l-3.183-6.553,7.655,2.424a140.665,140.665,0,0,0,42.617,6.629H279.744c15.185,0,29.717,7.868,38.877,21.045l8.93,12.847Z" transform="translate(-117.656 -1414.985)" fill="#152b3b"/>
          </g>
        </g>
        <g id="Group_18" data-name="Group 18" transform="translate(14.726 20.765)">
          <g id="Group_17" data-name="Group 17">
            <path id="Path_13" data-name="Path 13" d="M281.3,1494.54H194.981c-28.7,0-42.918-28.589-43.508-29.805l-3.186-6.558,7.658,2.431-.734,2.312,1.894-.92c.127.259,13.134,26.279,37.875,26.279H281.3Z" transform="translate(-148.287 -1458.177)" fill="#152b3b"/>
          </g>
        </g>
        <g id="Group_20" data-name="Group 20" transform="translate(50.142 50.751)">
          <g id="Group_19" data-name="Group 19">
            <path id="Path_14" data-name="Path 14" d="M329.8,1547.685H265.321c-28.505,0-42.774-22.9-43.367-23.871l5.345-3.262c.128.21,13.11,20.872,38.022,20.872H329.8Z" transform="translate(-221.954 -1520.551)" fill="#152b3b"/>
          </g>
        </g>
      </g>
      <g id="Group_23" data-name="Group 23" transform="translate(260.663 23.134)">
        <g id="Group_22" data-name="Group 22">
          <path id="Path_15" data-name="Path 15" d="M678.921,1470.5a5.7,5.7,0,0,0-2.46-2.416h-.995a9.1,9.1,0,0,1-6.408,2.171,8.962,8.962,0,0,1-5.915-3.091l-3.293-4.056h17.719l.472.205c.422.182,4.156,1.885,5.517,5.382Z" transform="translate(-659.85 -1463.105)" fill="#152b3b"/>
        </g>
      </g>
      <g id="Group_25" data-name="Group 25" transform="translate(48.215 106.326)">
        <g id="Group_24" data-name="Group 24">
          <path id="Path_16" data-name="Path 16" d="M248.871,1655.635a70.47,70.47,0,0,1-30.924-7.152l2.966-5.514c.219.115,22.172,11.616,46.4,3.4,24.633-8.35,28.42-10.148,28.568-10.222l2.856,5.573c-.337.176-4.023,1.972-29.414,10.581A63.533,63.533,0,0,1,248.871,1655.635Z" transform="translate(-217.947 -1636.15)" fill="#152b3b"/>
        </g>
      </g>
      <path id="Path_17" data-name="Path 17" d="M533.937,1692.16l-5.011-2.858,4.695-8.231-3.833-4.731-11.145-5.665a2.885,2.885,0,0,1,.845-5.419l10.1-1.637a2.891,2.891,0,0,1,1.413.124l13.45,4.7a2.884,2.884,0,0,1,1.93,2.6l.466,10.811-5.764.248-.382-8.857-10.913-3.814-.652.106,3.815,1.939a2.881,2.881,0,0,1,.934.756l5.46,6.741a2.884,2.884,0,0,1,.264,3.245Z" transform="translate(-325.046 -1544.067)" fill="#152b3b"/>
      <path id="Path_18" data-name="Path 18" d="M484.609,1720.339l-5.011-2.859,4.695-8.232-3.715-4.586-10.365-3.763a2.884,2.884,0,0,1-.022-5.414l9.522-3.545a2.892,2.892,0,0,1,1.958-.02l13.45,4.7a2.885,2.885,0,0,1,1.93,2.6l.466,10.811-5.764.249-.382-8.857-10.622-3.713-1.194.445,3.743,1.359a2.879,2.879,0,0,1,1.257.9l5.46,6.74a2.884,2.884,0,0,1,.264,3.245Z" transform="translate(-299.732 -1558.699)" fill="#152b3b"/>
    </g>
    <g id="Group_27" data-name="Group 27" transform="translate(186.611 1183.514)">
      <path id="Path_19" data-name="Path 19" d="M261.086,1352.052l4.082-5.944a6.02,6.02,0,0,1,2.424-2.077,6.172,6.172,0,0,1,3.125-.581,6.02,6.02,0,0,1,3.027,1.064,6.224,6.224,0,0,1,2.346,3.074,6.365,6.365,0,0,1,2.956-.381,6.112,6.112,0,0,1,4.865,3.474,6.17,6.17,0,0,1,.581,3.126,6.024,6.024,0,0,1-1.068,3.008L278.488,1364Zm11.314-.978a2.527,2.527,0,0,0,.419-1.941,2.5,2.5,0,0,0-1.091-1.68,2.53,2.53,0,0,0-1.941-.418,2.493,2.493,0,0,0-1.68,1.091l-2.064,3.006,4.294,2.948Zm8.086,3.724a2.526,2.526,0,0,0,.418-1.941,2.493,2.493,0,0,0-1.091-1.68,2.531,2.531,0,0,0-1.941-.418,2.5,2.5,0,0,0-1.681,1.091l-2.918,4.249,4.294,2.949Z" transform="translate(-261.086 -1280.018)" fill="#fff" stroke="#fff" stroke-width="0.983"/>
      <path id="Path_20" data-name="Path 20" d="M314.571,1320.368l-5.679,6.025,1.615,3.482-2.764,2.933-9.378-22.027,22.542,8.062-2.764,2.932Zm-3.022-1.191-7.319-2.868,3.294,7.137Z" transform="translate(-280.443 -1263.064)" fill="#fff" stroke="#fff" stroke-width="0.983"/>
      <path id="Path_21" data-name="Path 21" d="M339.727,1297.713a6.6,6.6,0,0,1-4.065-1.142l1.521-2.931a3.774,3.774,0,0,0,2.271.627,3.82,3.82,0,0,0,2.225-.88,3.623,3.623,0,0,0,1.288-1.815,1.98,1.98,0,0,0-.382-1.887,2.308,2.308,0,0,0-1.36-.826,5.262,5.262,0,0,0-1.687-.093q-.84.091-2.039.345a17.129,17.129,0,0,1-2.88.367,6.86,6.86,0,0,1-2.594-.439,5.343,5.343,0,0,1-2.336-1.766,6.01,6.01,0,0,1-1.295-2.877,5.622,5.622,0,0,1,.348-2.995,6.106,6.106,0,0,1,1.912-2.505,5.92,5.92,0,0,1,3.332-1.341,6.265,6.265,0,0,1,3.465.762l-1.534,3.045a2.49,2.49,0,0,0-1.594-.394,2.884,2.884,0,0,0-1.536.646,2.83,2.83,0,0,0-1.088,1.691,2.081,2.081,0,0,0,.444,1.767,2.49,2.49,0,0,0,1.923.939,13.727,13.727,0,0,0,3.136-.309,30.463,30.463,0,0,1,3.1-.489,6.5,6.5,0,0,1,2.519.323,5.081,5.081,0,0,1,2.433,1.776,5.577,5.577,0,0,1,1.266,3.04,5.939,5.939,0,0,1-.588,3.133,7.486,7.486,0,0,1-2.12,2.619A6.963,6.963,0,0,1,339.727,1297.713Z" transform="translate(-296 -1245.804)" fill="#fff" stroke="#fff" stroke-width="0.983"/>
      <path id="Path_22" data-name="Path 22" d="M357.42,1256l11.291-6.76,1.831,3.058-8.233,4.929,2.676,4.469,7.292-4.366,1.831,3.058-7.292,4.366,2.676,4.469,8.232-4.929,1.831,3.058-11.291,6.76Z" transform="translate(-311.107 -1231.107)" fill="#fff" stroke="#fff" stroke-width="0.983"/>
      <path id="Path_23" data-name="Path 23" d="M397.1,1237.757l5.693-2.3a10.555,10.555,0,1,1,7.921,19.568l-5.693,2.3Zm12.276,13.96a6.991,6.991,0,1,0-5.246-12.961l-2.389.967,5.246,12.961Z" transform="translate(-331.708 -1223.541)" fill="#fff" stroke="#fff" stroke-width="0.983"/>
      <path id="Path_24" data-name="Path 24" d="M470.368,1217.079l3.507-.637,3.773,20.77-3.507.637Z" transform="translate(-369.754 -1214.079)" fill="#fff" stroke="#fff" stroke-width="0.983"/>
      <path id="Path_25" data-name="Path 25" d="M501.387,1220.322l.678,12.95-3.559.187-1.148-21.9,13.4,13.162-.681-13.005,3.56-.186,1.15,21.957Z" transform="translate(-383.769 -1211.527)" fill="#fff" stroke="#fff" stroke-width="0.983"/>
      <path id="Path_26" data-name="Path 26" d="M568.868,1235.535a6.6,6.6,0,0,1-1.833-3.8l3.2-.8a3.774,3.774,0,0,0,1.032,2.117,3.819,3.819,0,0,0,2.132,1.087,3.624,3.624,0,0,0,2.213-.235,1.979,1.979,0,0,0,1.162-1.535,2.309,2.309,0,0,0-.28-1.567,5.284,5.284,0,0,0-1.046-1.326q-.624-.569-1.608-1.3a17.181,17.181,0,0,1-2.18-1.917,6.864,6.864,0,0,1-1.387-2.236,5.35,5.35,0,0,1-.221-2.921,6.014,6.014,0,0,1,1.3-2.874,5.621,5.621,0,0,1,2.476-1.72,6.1,6.1,0,0,1,3.144-.224,5.917,5.917,0,0,1,3.209,1.611,6.261,6.261,0,0,1,1.721,3.1l-3.3.865a2.489,2.489,0,0,0-.759-1.457,2.882,2.882,0,0,0-1.5-.724,2.829,2.829,0,0,0-1.988.3,2.083,2.083,0,0,0-1.031,1.5,2.491,2.491,0,0,0,.568,2.063,13.717,13.717,0,0,0,2.307,2.148,30.577,30.577,0,0,1,2.417,2,6.528,6.528,0,0,1,1.424,2.1,5.085,5.085,0,0,1,.277,3,5.582,5.582,0,0,1-1.442,2.96,5.943,5.943,0,0,1-2.739,1.632,7.483,7.483,0,0,1-3.366.143A6.968,6.968,0,0,1,568.868,1235.535Z" transform="translate(-419.948 -1213.941)" fill="#fff" stroke="#fff" stroke-width="0.983"/>
      <path id="Path_27" data-name="Path 27" d="M611.825,1220.973l3.665,1.312,1.044,14.817,3.523-4.068-.67-9.354,3.407,1.22.094,5.6,3.6-4.274,3.408,1.22-6.429,6.813.116,5.371,10.21-10.788,3.665,1.312-16.425,17.415-.581-10.254-6.982,7.547Z" transform="translate(-443.205 -1216.432)" fill="#fff" stroke="#fff" stroke-width="0.983"/>
      <path id="Path_28" data-name="Path 28" d="M666.412,1247.352l11.439,6.506-1.762,3.1-8.341-4.744-2.575,4.528,7.388,4.2-1.762,3.1-7.388-4.2-2.575,4.528,8.341,4.744-1.762,3.1-11.439-6.506Z" transform="translate(-466.13 -1230.129)" fill="#fff" stroke="#fff" stroke-width="0.983"/>
      <path id="Path_29" data-name="Path 29" d="M702.333,1270.969l4.809,3.819a10.555,10.555,0,1,1-13.129,16.531l-4.809-3.82Zm-6.1,17.559a6.991,6.991,0,1,0,8.7-10.949l-2.018-1.6-8.7,10.949Z" transform="translate(-483.384 -1242.392)" fill="#fff" stroke="#fff" stroke-width="0.983"/>
      <path id="Path_30" data-name="Path 30" d="M739.886,1305.24l8.932,9.664-2.618,2.419-6.513-7.047-3.825,3.536,5.769,6.241-2.618,2.419-5.769-6.241-3.825,3.536,6.513,7.046-2.617,2.419-8.932-9.664Z" transform="translate(-501.651 -1260.187)" fill="#fff" stroke="#fff" stroke-width="0.983"/>
      <path id="Path_31" data-name="Path 31" d="M762.828,1346.52l-10.782,7.205-1.98-2.963,18.237-12.186-4.459,18.247,10.828-7.235,1.98,2.963-18.282,12.216Z" transform="translate(-514.985 -1277.496)" fill="#fff" stroke="#fff" stroke-width="0.983"/>
    </g>
    <g id="Group_28" data-name="Group 28" transform="translate(197.215 1413.193)">
      <path id="Path_32" data-name="Path 32" d="M283.15,1715.32a4.327,4.327,0,0,1,.727-2.672l1.929.982a2.475,2.475,0,0,0-.4,1.492,2.508,2.508,0,0,0,.589,1.455,2.382,2.382,0,0,0,1.2.834,1.3,1.3,0,0,0,1.235-.261,1.514,1.514,0,0,0,.535-.9,3.45,3.45,0,0,0,.052-1.107q-.064-.55-.237-1.335a11.3,11.3,0,0,1-.256-1.887,4.5,4.5,0,0,1,.274-1.7,3.5,3.5,0,0,1,1.146-1.542,3.937,3.937,0,0,1,1.88-.864,3.68,3.68,0,0,1,1.965.212,4,4,0,0,1,1.653,1.24,3.888,3.888,0,0,1,.9,2.178,4.106,4.106,0,0,1-.481,2.276l-2.005-.99a1.631,1.631,0,0,0,.25-1.047,1.893,1.893,0,0,0-.432-1,1.856,1.856,0,0,0-1.115-.7,1.365,1.365,0,0,0-1.157.3,1.633,1.633,0,0,0-.6,1.266,8.958,8.958,0,0,0,.219,2.055,20.018,20.018,0,0,1,.337,2.029,4.266,4.266,0,0,1-.2,1.654,3.329,3.329,0,0,1-1.152,1.6,3.659,3.659,0,0,1-1.987.847,3.894,3.894,0,0,1-2.058-.369,4.911,4.911,0,0,1-1.729-1.376A4.566,4.566,0,0,1,283.15,1715.32Z" transform="translate(-283.143 -1698.876)" fill="#bdeeff"/>
      <path id="Path_33" data-name="Path 33" d="M308.054,1723.379l5.984,6.218-1.684,1.62-4.363-4.533-2.461,2.368,3.864,4.016-1.684,1.621-3.864-4.016-2.461,2.368,4.363,4.534-1.684,1.621-5.984-6.218Z" transform="translate(-290.898 -1706.982)" fill="#bdeeff"/>
      <path id="Path_34" data-name="Path 34" d="M323.079,1755.745a7.1,7.1,0,0,1-.28-3.663,7.134,7.134,0,0,1,4.677-5.415,7.054,7.054,0,0,1,3.654-.228,7.16,7.16,0,0,1,3.351,1.648,6.857,6.857,0,0,1,1.907,2.716l-1.881,2.177a4.535,4.535,0,0,0-1.6-3.12,4.756,4.756,0,0,0-2.235-1.1,4.691,4.691,0,0,0-2.429.158,4.61,4.61,0,0,0-2.046,1.392,4.674,4.674,0,0,0-1.081,2.214,4.616,4.616,0,0,0,.177,2.422,4.737,4.737,0,0,0,1.418,2.057,4.557,4.557,0,0,0,3.334,1.146l-1.88,2.177a6.784,6.784,0,0,1-2.964-1.491A7.1,7.1,0,0,1,323.079,1755.745Z" transform="translate(-303.671 -1718.883)" fill="#bdeeff"/>
      <path id="Path_35" data-name="Path 35" d="M345.395,1771.124a5.562,5.562,0,0,1-.439-2.769,5.341,5.341,0,0,1,.959-2.632l4.918-7,1.913,1.343-4.918,7a3.113,3.113,0,0,0-.571,1.532,3.02,3.02,0,0,0,.276,1.578,3.236,3.236,0,0,0,2.589,1.818,3.032,3.032,0,0,0,1.578-.276,3.12,3.12,0,0,0,1.247-1.058l4.918-7,1.913,1.343-4.918,7a5.311,5.311,0,0,1-2.207,1.845,5.381,5.381,0,0,1-2.794.444,5.731,5.731,0,0,1-2.745-1.049A4.951,4.951,0,0,1,345.395,1771.124Z" transform="translate(-315.226 -1725.332)" fill="#bdeeff"/>
      <path id="Path_36" data-name="Path 36" d="M375.986,1776.345l4.749,2.669a3.9,3.9,0,0,1,1.5,1.481,4.14,4.14,0,0,1,.563,2.008,3.765,3.765,0,0,1-.481,1.957,4.044,4.044,0,0,1-1.962,1.8,3.936,3.936,0,0,1-2.586.2l.105,6.823-2.351-1.321.044-6.574-1.5-.846-2.818,5.016-2.037-1.145Zm1.574,7.586q1.8,1.012,2.674-.539.863-1.535-.939-2.548l-2.4-1.348-1.735,3.087Z" transform="translate(-327.83 -1734.484)" fill="#bdeeff"/>
      <path id="Path_37" data-name="Path 37" d="M401.091,1789.213l2.117.991-5.872,12.536-2.116-.991Z" transform="translate(-341.338 -1741.166)" fill="#bdeeff"/>
      <path id="Path_38" data-name="Path 38" d="M418.722,1797.689l-3.318-1.29.847-2.179,8.8,3.422-.847,2.178-3.3-1.284-4.171,10.724-2.178-.848Z" transform="translate(-351.376 -1743.766)" fill="#bdeeff"/>
      <path id="Path_39" data-name="Path 39" d="M437.063,1816.36l-5.2-1.561-1.567,1.969-2.532-.76,10.161-11.967,1.892,15.584-2.531-.76Zm-.189-2.122-.468-5.134-3.217,4.027Z" transform="translate(-358.237 -1748.866)" fill="#bdeeff"/>
      <path id="Path_40" data-name="Path 40" d="M461.524,1823.59a4.324,4.324,0,0,1-1.14-2.523l2.113-.471a2.479,2.479,0,0,0,.642,1.4,2.51,2.51,0,0,0,1.381.747,2.382,2.382,0,0,0,1.455-.119,1.3,1.3,0,0,0,.787-.987,1.516,1.516,0,0,0-.158-1.032,3.458,3.458,0,0,0-.664-.886q-.4-.383-1.033-.879a11.283,11.283,0,0,1-1.4-1.292,4.5,4.5,0,0,1-.873-1.488,3.507,3.507,0,0,1-.1-1.918,3.934,3.934,0,0,1,.9-1.863,3.687,3.687,0,0,1,1.65-1.088,4,4,0,0,1,2.065-.1,3.882,3.882,0,0,1,2.078,1.109,4.1,4.1,0,0,1,1.077,2.061l-2.176.513a1.636,1.636,0,0,0-.474-.967,1.9,1.9,0,0,0-.972-.5,1.858,1.858,0,0,0-1.309.167,1.363,1.363,0,0,0-.7.968,1.633,1.633,0,0,0,.339,1.362,9,9,0,0,0,1.478,1.446,19.961,19.961,0,0,1,1.551,1.35,4.263,4.263,0,0,1,.9,1.4,3.333,3.333,0,0,1,.133,1.972,3.654,3.654,0,0,1-.994,1.917,3.891,3.891,0,0,1-1.822,1.025,4.912,4.912,0,0,1-2.209.039A4.572,4.572,0,0,1,461.524,1823.59Z" transform="translate(-375.174 -1752.484)" fill="#bdeeff"/>
      <path id="Path_41" data-name="Path 41" d="M578.6,1812.871l2.3-.4,2.384,13.637-2.3.4Z" transform="translate(-436.559 -1753.241)" fill="#bdeeff"/>
      <path id="Path_42" data-name="Path 42" d="M596.629,1812.378l2.147,8.229-2.261.59-3.631-13.916,10.346,6.683-2.156-8.263,2.261-.59,3.64,13.952Z" transform="translate(-443.974 -1749.42)" fill="#bdeeff"/>
      <path id="Path_43" data-name="Path 43" d="M625.052,1800.531l-3.342,1.227-.805-2.194,8.86-3.253.805,2.194-3.324,1.221,3.965,10.8-2.194.805Z" transform="translate(-458.524 -1744.851)" fill="#bdeeff"/>
      <path id="Path_44" data-name="Path 44" d="M645.487,1789.712l7.815-3.66.991,2.117-5.7,2.669,1.448,3.093,5.047-2.363.991,2.117-5.047,2.363,1.448,3.093,5.7-2.669.991,2.117-7.815,3.66Z" transform="translate(-471.288 -1739.525)" fill="#bdeeff"/>
      <path id="Path_45" data-name="Path 45" d="M679.6,1787.568a7.119,7.119,0,0,1-3.561-.877,7.1,7.1,0,0,1-3.662-6.127,7.124,7.124,0,0,1,.914-3.551,7.033,7.033,0,0,1,2.59-2.659,6.94,6.94,0,0,1,5.261-.8l-.577,2.293a4.537,4.537,0,0,0-3.466.543,4.751,4.751,0,0,0-1.745,1.776,4.693,4.693,0,0,0-.613,2.356,4.614,4.614,0,0,0,.679,2.38,4.675,4.675,0,0,0,1.762,1.722,4.6,4.6,0,0,0,2.362.588,4.746,4.746,0,0,0,2.39-.7,4.6,4.6,0,0,0,1.937-2.226l-1.356-2.269-2.408,1.439-1.2-2.006,4.275-2.555,3.154,5.278.025.11a6.911,6.911,0,0,1-3.18,4.246A7.057,7.057,0,0,1,679.6,1787.568Z" transform="translate(-485.25 -1732.934)" fill="#bdeeff"/>
      <path id="Path_46" data-name="Path 46" d="M695.75,1761.15l4.365-3.258a3.9,3.9,0,0,1,1.961-.769,4.14,4.14,0,0,1,2.063.3,3.77,3.77,0,0,1,1.594,1.234,4.048,4.048,0,0,1,.853,2.526,3.939,3.939,0,0,1-.868,2.443L712,1766.3l-2.161,1.613-5.991-2.707-1.383,1.032,3.441,4.61-1.873,1.4Zm7.572,1.639q1.656-1.236.592-2.663-1.054-1.412-2.71-.175L699,1761.6l2.119,2.838Z" transform="translate(-497.387 -1724.491)" fill="#bdeeff"/>
      <path id="Path_47" data-name="Path 47" d="M717.3,1747.045l1.766-1.531,9.069,10.458-1.766,1.531Z" transform="translate(-508.577 -1718.475)" fill="#bdeeff"/>
      <path id="Path_48" data-name="Path 48" d="M730.388,1732.967l-2.528,2.506-1.645-1.66,6.705-6.643,1.645,1.66-2.516,2.493,8.1,8.174-1.66,1.645Z" transform="translate(-513.205 -1708.95)" fill="#bdeeff"/>
      <path id="Path_49" data-name="Path 49" d="M757.333,1727.988l-6.61-12.881,1.236-1.473,13.833,4.273L764.036,1720l-3.594-1.125-3.07,3.658,1.715,3.364Zm-1.191-7.566,1.981-2.36-4.148-1.476Z" transform="translate(-525.931 -1701.922)" fill="#bdeeff"/>
      <path id="Path_50" data-name="Path 50" d="M775.659,1701.115a4.332,4.332,0,0,1-2.769.05l.4-2.127a2.472,2.472,0,0,0,1.544-.035,2.508,2.508,0,0,0,1.232-.972,2.375,2.375,0,0,0,.466-1.383,1.3,1.3,0,0,0-.6-1.113,1.517,1.517,0,0,0-1.011-.263,3.443,3.443,0,0,0-1.076.26q-.511.216-1.215.6a11.29,11.29,0,0,1-1.739.774,4.5,4.5,0,0,1-1.712.213,3.508,3.508,0,0,1-1.8-.668,3.946,3.946,0,0,1-1.356-1.563,3.681,3.681,0,0,1-.346-1.946,4,4,0,0,1,.728-1.934,3.886,3.886,0,0,1,1.839-1.471,4.108,4.108,0,0,1,2.32-.175l-.389,2.2a1.626,1.626,0,0,0-1.076.053,1.892,1.892,0,0,0-.843.7,1.858,1.858,0,0,0-.365,1.268,1.364,1.364,0,0,0,.612,1.026,1.636,1.636,0,0,0,1.385.227,9,9,0,0,0,1.911-.786,19.923,19.923,0,0,1,1.854-.892,4.267,4.267,0,0,1,1.643-.272,3.331,3.331,0,0,1,1.863.657,3.656,3.656,0,0,1,1.369,1.671,3.9,3.9,0,0,1,.222,2.078,4.91,4.91,0,0,1-.837,2.045A4.568,4.568,0,0,1,775.659,1701.115Z" transform="translate(-533.69 -1689.272)" fill="#bdeeff"/>
    </g>
    <g id="Group_30" data-name="Group 30" transform="translate(292.732 1230.696)">
      <g id="Group_29" data-name="Group 29">
        <path id="Path_51" data-name="Path 51" d="M523.5,1345.369l-7.2-4.156,5.089-2.938a2.384,2.384,0,1,0,0-2.382l-5.089-2.938,7.2-4.156,4.071,1.091,1.746-6.513-6.513-1.746-1.091,4.071-7.2,4.156v-5.876a2.385,2.385,0,1,0-2.062-1.191l-5.089,2.938v-8.313l2.98-2.98-4.768-4.768-4.768,4.768,2.98,2.98v8.313l-5.089-2.938a2.384,2.384,0,1,0-2.063,1.191v5.876l-7.2-4.156-1.091-4.071-6.513,1.746,1.745,6.513,4.071-1.091,7.2,4.157-5.089,2.938a2.384,2.384,0,1,0,0,2.382l5.089,2.938-7.2,4.157-4.071-1.091-1.745,6.513,6.513,1.745,1.091-4.071,7.2-4.156v5.877a2.384,2.384,0,1,0,2.063,1.191l5.089-2.938v8.313l-2.98,2.98,4.768,4.769,4.768-4.768-2.98-2.98v-8.313l5.089,2.938a2.384,2.384,0,1,0,2.063-1.191v-5.876l7.2,4.156,1.09,4.071,6.514-1.745-1.745-6.514Zm-25.08-6.221-3.576-2.064,3.576-2.065,3.576,2.065Zm5.364,5.162-3.576,2.064v-4.129l3.576-2.065v4.13Zm0-10.323-3.576-2.065v-4.129l3.576,2.064v4.13Zm3.576-4.13,3.576-2.064v4.129l-3.576,2.065Zm3.576,16.517-3.576-2.064v-4.13l3.576,2.065Zm1.788-7.226-3.576-2.064,3.576-2.065,3.576,2.065Z" transform="translate(-481.825 -1309.667)" fill="#152b3b"/>
      </g>
    </g>
    <path id="Path_52" data-name="Path 52" d="M422.227,1778.166" transform="translate(-158.147 -322.237)" fill="none" stroke="#0061e2" stroke-width="1"/>
    <path id="Path_53" data-name="Path 53" d="M526.953,1821.684l-3.944,4.694,3.944,4.693,3.944-4.693Z" transform="translate(-210.477 -344.833)" fill="#bdeeff"/>
  </g>
</svg>
