<?xml version="1.0" encoding="UTF-8" standalone="no"?>
<svg width="100mm" height="100mm" viewBox="0 0 100 100" version="1.1" id="svg8" xmlns="http://www.w3.org/2000/svg" xmlns:svg="http://www.w3.org/2000/svg">
  <g style="fill:#ed0009;stroke-width:.26458" transform="translate(-52.45142,-132.67336)">
    <path d="m 93.160635,228.20041 q -0.691974,1.10468 -1.852585,1.70138 -1.002304,0.72402 -2.925315,0.0602 -1.927531,-0.54212 -2.700008,-1.5567 -0.609518,-1.01073 -1.052563,-2.14169 -0.276569,-1.25191 -0.719456,-2.38321 -0.281279,-1.12758 -1.387242,-1.90015 -2.380374,-1.42478 -2.93725,-3.80425 -0.798769,-4.50252 -0.718201,-10.72877 0.242338,-6.22266 0.17275,-8.59096 -0.06911,-2.36828 -0.512618,-3.49948 -0.28128,-1.12757 -0.92001,-1.3913 -0.476969,-0.26029 -1.435614,-0.65652 -1.760475,-0.66378 -2.426219,-4.41528 -0.661347,-3.8767 -0.138199,-8.97164 1.021469,-9.56795 -0.820127,-16.46113 -1.694859,-6.51611 -0.985029,-12.22968 0.71443,-5.83814 1.779824,-8.18041 2.1603,-5.43128 7.160759,-4.56935 5.16279,0.86619 8.08798,0.80835 3.087506,-0.0482 5.053934,-0.50716 1.966291,-0.45297 3.60807,-0.91436 1.641975,-0.46018 4.232984,-0.27708 2.75817,0.0602 4.84313,0.73365 2.25199,0.54935 4.50414,1.09987 5.94484,1.63102 9.35685,1.58463 3.41211,-0.0482 5.36385,-0.12637 1.95659,-0.2049 3.41684,-0.17103 3.08263,0.0723 4.98108,1.35974 2.06073,1.29286 2.32708,2.79378 0.26693,1.50079 0.0407,3.11495 -0.44618,3.10387 -1.6635,5.19351 -1.214,1.9653 -1.42901,3.33046 -0.0533,1.36898 0.0549,2.74172 0.11309,1.24816 0.22807,2.49647 0.11308,1.24817 -0.43156,2.73041 -0.3782,1.36153 -2.05836,2.81774 -1.67573,1.33189 -3.82857,2.40359 -4.79231,2.13228 -7.68857,1.44319 -2.89609,-0.68906 -4.34179,-1.09624 -1.2789,-0.52764 -2.56697,-0.80594 -2.73391,-0.68547 -5.34919,-0.24685 -2.61539,0.43851 -3.64214,1.78509 -1.02665,1.34661 -0.92301,2.84377 0.26694,1.5008 1.84025,2.78257 1.57882,1.15651 4.33214,1.34481 2.91567,0.19145 4.70522,0.10837 1.78941,-0.0844 2.92517,-0.0602 2.43371,0.0602 4.31758,1.71821 2.8187,2.68042 -0.792,7.82948 -0.86489,1.35021 -1.6005,3.57561 -0.57385,2.22892 -1.47267,4.45045 -0.89394,2.09711 -2.24975,3.56082 -1.18984,1.34284 -2.8018,1.0565 -1.61269,-0.28672 -2.24228,-0.79871 -0.46722,-0.50837 -1.10265,-0.89748 -1.25942,-1.02518 -2.89629,-0.68909 -2.61526,0.4385 -3.2232,3.53851 -0.44133,2.97942 -0.39435,5.96993 0.0457,2.99063 0.12558,5.11 0.24247,2.12314 -0.16474,4.23134 -0.67563,4.84246 -5.153336,7.23111 -1.48901,0.71315 -2.35376,2.0636 -0.69839,1.22963 -1.55686,2.45563 z" />
  </g>
</svg>
